<svg xmlns="http://www.w3.org/2000/svg" width="270" height="270" viewBox="0 0 270 270">
  <g id="Aluminum_bottle" data-name="Aluminum bottle" transform="translate(-98 -222)">
    <rect id="Rectangle_832" data-name="Rectangle 832" width="270" height="270" transform="translate(98 222)" fill="none"/>
    <g id="Group_11122" data-name="Group 11122" transform="translate(22155.5 18551)">
      <path id="Path_3842" data-name="Path 3842" d="M136.256-240.172c-6.05,2.554-8.738,9.276-8.066,20.434l.4,8.47H112.864c-9.679,0-15.864.538-15.864,1.344s15.729,1.344,44.364,1.344,44.364-.538,44.364-1.344-6.184-1.344-15.729-1.344H154.136l.538-7.663C155.615-235.736,147.683-245.012,136.256-240.172Zm11.024,8.066c4.3,4.3-2.689,9.948-9.142,7.394-4.168-1.479-4.974-4.033-2.42-7.125C138.272-234.66,144.456-234.795,147.28-232.106Zm0,16.267c3.63,3.63,2.42,4.571-5.915,4.571-4.436,0-8.066-.538-8.066-1.21,0-2.554,4.3-5.512,8.066-5.512C143.515-217.99,146.2-217.049,147.28-215.839Z" transform="translate(-22064.074 -18075.549)"/>
      <path id="Path_3843" data-name="Path 3843" d="M97.776-212.236a72.216,72.216,0,0,0-6.05,9.679l-3.227,6.05V-20.8l3.092,2.554c6.856,5.512,25.812,8.47,53.372,8.47,32.668,0,51.489-4.168,54.582-12.234.941-2.554,1.21-31.189.941-89.132l-.4-85.368-3.092-6.05a59.056,59.056,0,0,0-6.319-9.814L187.446-216l-43.423.134H100.6Zm-6.587,117.9-.4-24.2Z" transform="translate(-22067 -18066.781)"/>
      <path id="Path_3844" data-name="Path 3844" d="M108.55-60.749c8.066,2.689,40.6,3.9,53.64,1.882,13.981-2.151,17.074-4.436,4.168-3.226-12.5,1.344-40.466,1.344-53.775.134L102.5-62.9Z" transform="translate(-22062.18 -18014.061)"/>
    </g>
  </g>
</svg>
