<?xml version="1.0" standalone="no"?>
<!DOCTYPE svg PUBLIC "-//W3C//DTD SVG 20010904//EN"
 "http://www.w3.org/TR/2001/REC-SVG-20010904/DTD/svg10.dtd">
<svg version="1.0" xmlns="http://www.w3.org/2000/svg"
 width="270.000000pt" height="270.000000pt" viewBox="0 0 270.000000 270.000000"
 preserveAspectRatio="xMidYMid meet">

<g transform="translate(0.000000,270.000000) scale(0.100000,-0.100000)"
fill="#000000" stroke="none">
<path d="M932 2520 c-12 -20 -10 -20 408 -20 418 0 420 0 408 20 -12 19 -24
20 -408 20 -384 0 -396 -1 -408 -20z"/>
<path d="M900 2455 c0 -13 56 -15 445 -15 389 0 445 2 445 15 0 13 -56 15
-445 15 -389 0 -445 -2 -445 -15z"/>
<path d="M900 2366 c0 -37 -8 -54 -47 -107 l-48 -64 2 -115 c1 -63 2 -118 2
-122 1 -5 235 -8 520 -8 464 0 520 2 525 16 3 9 6 67 6 130 0 115 0 115 -35
167 -28 41 -35 61 -35 99 l0 48 -445 0 -445 0 0 -44z"/>
<path d="M814 1683 c3 -82 7 -345 7 -585 l0 -438 512 0 512 0 3 585 2 585
-521 0 -522 0 7 -147z"/>
<path d="M836 492 c-2 -4 -2 -62 1 -128 l6 -121 42 -47 42 -46 139 1 c77 1
250 -2 385 -6 282 -9 297 -6 358 60 l41 45 0 125 0 125 -504 0 c-278 0 -507
-3 -510 -8z"/>
<path d="M977 133 c-55 -6 -41 -27 23 -35 90 -11 591 -19 660 -11 49 6 66 12
68 25 3 15 -9 17 -125 15 -70 -1 -231 1 -358 4 -126 4 -247 4 -268 2z"/>
</g>
</svg>
