<?xml version="1.0" encoding="UTF-8"?>
<svg width="24px" height="20px" viewBox="0 0 24 20" version="1.1" xmlns="http://www.w3.org/2000/svg" xmlns:xlink="http://www.w3.org/1999/xlink">
    <!-- Generator: Sketch 52.6 (67491) - http://www.bohemiancoding.com/sketch -->
    <title>Bill&amp;expense</title>
    <desc>Created with Sketch.</desc>
    <g id="Page-1" stroke="none" stroke-width="1" fill="none" fill-rule="evenodd">
        <g id="System-settings_Password-Policy" transform="translate(-29.000000, -392.000000)">
            <g id="folder-shared" transform="translate(29.000000, 317.000000)">
                <g id="Bill&amp;expense" transform="translate(0.000000, 75.000000)">
                    <path d="M21.6,2.4 L12,2.4 L9.6,0 L2.4,0 C1.08,0 0,1.08 0,2.4 L0,16.8 C0,18.12 1.08,19.2 2.4,19.2 L21.6,19.2 C22.92,19.2 24,18.12 24,16.8 L24,4.8 C24,3.48 22.92,2.4 21.6,2.4 L21.6,2.4 Z" id="Shape" fill="#f78834"></path>
                    <path d="M18.304,17 L14.8,12.232 L12.848,12.232 L12.848,11.112 L16.4,11.112 C16.9440027,11.112 17.3919982,10.9840013 17.744,10.728 C18.0960018,10.4719987 18.272,10.0880026 18.272,9.576 L12.848,9.576 L12.848,8.456 L18.272,8.456 C18.2506666,7.96533088 18.069335,7.59200128 17.728,7.336 C17.386665,7.07999872 16.9440027,6.952 16.4,6.952 L12.848,6.952 L12.848,5.832 L21.136,5.832 L21.136,6.952 L18.48,6.952 L18.48,7.016 C18.5440003,7.02666672 18.6293328,7.04799984 18.736,7.08 C18.8426672,7.11200016 18.9519994,7.17866616 19.064,7.28 C19.1760006,7.38133384 19.2773329,7.5253324 19.368,7.712 C19.4586671,7.8986676 19.5199998,8.14666512 19.552,8.456 L21.136,8.456 L21.136,9.576 L19.552,9.576 C19.4559995,10.4080042 19.1360027,11.0586643 18.592,11.528 C18.0479973,11.9973357 17.3066714,12.232 16.368,12.232 L19.936,17 L18.304,17 Z" id="₹" stroke="#FFFFFF" stroke-width="0.2" fill="#FFFFFF"></path>
                </g>
            </g>
        </g>
    </g>
</svg>