<svg xmlns="http://www.w3.org/2000/svg" width="56" height="54" viewBox="0 0 56 54">
  <g id="Check_1" transform="translate(-4163 -1650)">
    <rect id="Rectangle_483" data-name="Rectangle 483" width="56" height="54" rx="15" transform="translate(4163 1650)" fill="#edfcf6"/>
    <path id="check_1_" data-name="check (1)" d="M9.325,18.951a1.243,1.243,0,0,1-1.758,0L.546,11.93a1.864,1.864,0,0,1,0-2.637l.879-.879a1.864,1.864,0,0,1,2.637,0L8.446,12.8,20.29.953a1.864,1.864,0,0,1,2.637,0l.879.879a1.864,1.864,0,0,1,0,2.637Zm0,0" transform="translate(4179 1667.594)" fill="#5ad6a6"/>
  </g>
</svg>
