<svg xmlns="http://www.w3.org/2000/svg" width="23.694" height="23.685" viewBox="0 0 23.694 23.685">
  <g id="Page-1" transform="translate(-0.143 -0.138)">
    <g id="Dashboard_Overview" transform="translate(-29 -889)">
      <g id="Configuration" transform="translate(53 913) rotate(180)">
        <g id="noun_tools_147528">
          <g id="Group">
            <path id="Shape" d="M19.4,4.6a1.63,1.63,0,0,1,0-2.3L20.867.833a.3.3,0,0,0-.167-.5,4.3,4.3,0,0,0-5.2,5.6.318.318,0,0,1-.067.333L6.267,15.433a.306.306,0,0,1-.333.067,4.215,4.215,0,0,0-4.5,1,4.3,4.3,0,0,0-1.1,4.233.322.322,0,0,0,.533.133L2.333,19.4a1.626,1.626,0,0,1,2.3,2.3L3.167,23.167A.322.322,0,0,0,3.3,23.7a4.245,4.245,0,0,0,4.2-1.1,4.307,4.307,0,0,0,1-4.5.318.318,0,0,1,.067-.333l9.2-9.2A.306.306,0,0,1,18.1,8.5a4.215,4.215,0,0,0,4.5-1,4.321,4.321,0,0,0,1.1-4.2.322.322,0,0,0-.533-.133L21.667,4.6A1.534,1.534,0,0,1,19.4,4.6Z" fill="#77838a"/>
            <g id="Shape-2" data-name="Shape">
              <path id="Path_1" data-name="Path 1" d="M8.5,11.333,11.333,8.5a.464.464,0,0,0,0-.633L4.4.933A2.564,2.564,0,0,0,.933.833a2.446,2.446,0,0,0-.067,3.5l7,7A.464.464,0,0,0,8.5,11.333Z" fill="#77838a"/>
              <path id="Path_2" data-name="Path 2" d="M22.633,20.633a.882.882,0,0,0-.2-.167L21.2,19.833c-.033-.033-.1-.067-.133-.1l-6-6a.464.464,0,0,0-.633,0l-.733.733a.464.464,0,0,0,0,.633l6,6c.033.033.067.1.1.133l.633,1.233a.887.887,0,0,0,.167.2l1.633,1.1A.552.552,0,0,0,22.9,23.7l.733-.733A.552.552,0,0,0,23.7,22.3Z" fill="#77838a"/>
            </g>
          </g>
        </g>
      </g>
    </g>
  </g>
</svg>
