<?xml version="1.0" encoding="UTF-8"?>
<svg width="24px" height="24px" viewBox="0 0 24 24" version="1.1" xmlns="http://www.w3.org/2000/svg" xmlns:xlink="http://www.w3.org/1999/xlink">
    <!-- Generator: Sketch 52.6 (67491) - http://www.bohemiancoding.com/sketch -->
    <title>Configuration</title>
    <desc>Created with Sketch.</desc>
    <g id="Page-1" stroke="none" stroke-width="1" fill="none" fill-rule="evenodd">
        <g id="Dashboard_Overview" transform="translate(-29.000000, -889.000000)" fill="#f78834" fill-rule="nonzero">
            <g id="Configuration" transform="translate(41.000000, 901.000000) scale(-1, -1) translate(-41.000000, -901.000000) translate(29.000000, 889.000000)">
                <g id="noun_tools_147528">
                    <g id="Group">
                        <path d="M19.4,4.6 C18.7666667,3.96666667 18.7666667,2.93333333 19.4,2.3 L20.8666667,0.833333333 C21.0333333,0.666666667 20.9333333,0.4 20.7,0.333333333 C19.2666667,-0.0666666667 17.6333333,0.3 16.5,1.43333333 C15.2666667,2.66666667 14.9666667,4.43333333 15.5,5.93333333 C15.5333333,6.03333333 15.5333333,6.16666667 15.4333333,6.26666667 L6.26666667,15.4333333 C6.16666667,15.5333333 6.06666667,15.5333333 5.93333333,15.5 C4.4,14.9333333 2.63333333,15.2666667 1.43333333,16.5 C0.266666667,17.6666667 -0.0666666667,19.2666667 0.333333333,20.7333333 C0.4,20.9666667 0.7,21.0333333 0.866666667,20.8666667 L2.33333333,19.4 C2.96666667,18.7666667 4,18.7666667 4.63333333,19.4 C5.26666667,20.0333333 5.26666667,21.0666667 4.63333333,21.7 L3.16666667,23.1666667 C3,23.3333333 3.06666667,23.6333333 3.3,23.7 C4.73333333,24.1 6.36666667,23.7666667 7.5,22.6 C8.73333333,21.3666667 9.03333333,19.6 8.5,18.1 C8.46666667,18 8.46666667,17.8666667 8.56666667,17.7666667 L17.7666667,8.56666667 C17.8666667,8.46666667 17.9666667,8.46666667 18.1,8.5 C19.6333333,9.06666667 21.4,8.73333333 22.6,7.5 C23.7333333,6.36666667 24.1,4.73333333 23.7,3.3 C23.6333333,3.06666667 23.3333333,3 23.1666667,3.16666667 L21.6666667,4.6 C21.0333333,5.26666667 20.0333333,5.26666667 19.4,4.6 Z" id="Shape"></path>
                        <g id="Shape">
                            <path d="M8.5,11.3333333 L11.3333333,8.5 C11.5,8.33333333 11.5,8.03333333 11.3333333,7.86666667 L4.4,0.933333333 C3.5,0.0333333333 1.9,-0.0666666667 0.933333333,0.833333333 C-0.0666666667,1.76666667 -0.1,3.36666667 0.866666667,4.33333333 L7.86666667,11.3333333 C8.03333333,11.5 8.33333333,11.5 8.5,11.3333333 Z"></path>
                            <path d="M22.6333333,20.6333333 C22.5666667,20.5666667 22.5,20.5 22.4333333,20.4666667 L21.2,19.8333333 C21.1666667,19.8 21.1,19.7666667 21.0666667,19.7333333 L15.0666667,13.7333333 C14.9,13.5666667 14.6,13.5666667 14.4333333,13.7333333 L13.7,14.4666667 C13.5333333,14.6333333 13.5333333,14.9333333 13.7,15.1 L19.7,21.1 C19.7333333,21.1333333 19.7666667,21.2 19.8,21.2333333 L20.4333333,22.4666667 C20.4666667,22.5333333 20.5333333,22.6 20.6,22.6666667 L22.2333333,23.7666667 C22.4333333,23.9 22.7333333,23.8666667 22.9,23.7 L23.6333333,22.9666667 C23.8,22.8 23.8333333,22.5 23.7,22.3 L22.6333333,20.6333333 Z"></path>
                        </g>
                    </g>
                </g>
            </g>
        </g>
    </g>
</svg>