<?xml version="1.0" encoding="UTF-8"?>
<svg width="24px" height="24px" viewBox="0 0 24 24" version="1.1" xmlns="http://www.w3.org/2000/svg" xmlns:xlink="http://www.w3.org/1999/xlink">
    <!-- Generator: Sketch 52.6 (67491) - http://www.bohemiancoding.com/sketch -->
    <title>content</title>
    <desc>Created with Sketch.</desc>
    <g id="Page-1" stroke="none" stroke-width="1" fill="none" fill-rule="evenodd">
        <g id="System-settings_Password-Policy" transform="translate(-29.000000, -615.000000)" fill="#f78834">
            <g id="main-nav" transform="translate(-1.000000, 10.000000)">
                <g id="content" transform="translate(30.000000, 605.000000)">
                    <path d="M21.3333333,0 L2.66666667,0 C1.2,0 0,1.2 0,2.66666667 L0,21.3333333 C0,22.8 1.2,24 2.66666667,24 L21.3333333,24 C22.8,24 24,22.8 24,21.3333333 L24,2.66666667 C24,1.2 22.8,0 21.3333333,0 L21.3333333,0 Z M18.6666667,8 L5.33333333,8 L5.33333333,5.33333333 L18.6666667,5.33333333 L18.6666667,8 L18.6666667,8 Z M18.6666667,13.3333333 L5.33333333,13.3333333 L5.33333333,10.6666667 L18.6666667,10.6666667 L18.6666667,13.3333333 L18.6666667,13.3333333 Z M14.6666667,18.6666667 L5.33333333,18.6666667 L5.33333333,16 L14.6666667,16 L14.6666667,18.6666667 L14.6666667,18.6666667 Z" id="Shape"></path>
                </g>
            </g>
        </g>
    </g>
</svg>