<?xml version="1.0" encoding="UTF-8"?>
<svg width="24px" height="24px" viewBox="0 0 24 24" version="1.1" xmlns="http://www.w3.org/2000/svg" xmlns:xlink="http://www.w3.org/1999/xlink">
    <!-- Generator: Sketch 52.6 (67491) - http://www.bohemiancoding.com/sketch -->
    <title>Court Settings</title>
    <desc>Created with Sketch.</desc>
    <g id="Page-1" stroke="none" stroke-width="1" fill="none" fill-rule="evenodd">
        <g id="System-settings_Password-Policy" transform="translate(-29.000000, -539.000000)" fill="#f78834" fill-rule="nonzero">
            <g id="main-nav" transform="translate(-1.000000, 10.000000)">
                <g id="Court-Settings" transform="translate(30.000000, 529.000000)">
                    <g id="noun_court_2078161">
                        <path d="M2.06,20.85 L6.38,20.85 C6.145,20.67 5.915,20.48 5.68,20.29 L5.68,10.44 C5.915,10.25 6.145,10.08 6.38,9.9 L2.06,9.9 C2.305,10.08 2.525,10.25 2.765,10.44 L2.765,20.29 C2.525,20.5 2.305,20.67 2.06,20.85 Z" id="Shape"></path>
                        <path d="M7.2,20.85 L11.5,20.85 C11.265,20.67 11.05,20.48 10.785,20.29 L10.785,10.44 C11.05,10.25 11.285,10.08 11.5,9.9 L7.2,9.9 C7.435,10.08 7.67,10.25 7.91,10.44 L7.91,20.29 C7.67,20.5 7.435,20.67 7.2,20.85 Z" id="Shape"></path>
                        <path d="M12.33,20.85 L16.65,20.85 C16.41,20.67 16.175,20.48 15.91,20.29 L15.91,10.44 L16.65,9.9 L12.33,9.9 C12.565,10.08 12.79,10.25 13.025,10.44 L13.025,20.29 C12.79,20.5 12.565,20.67 12.33,20.85 Z" id="Shape"></path>
                        <path d="M17.46,20.85 L21.78,20.85 C21.54,20.67 21.33,20.48 21.055,20.29 L21.055,10.44 C21.33,10.25 21.555,10.08 21.78,9.9 L17.46,9.9 C17.705,10.08 17.935,10.25 18.17,10.44 L18.17,20.29 C17.935,20.5 17.705,20.67 17.46,20.85 Z" id="Shape"></path>
                        <path d="M1.915,21.59 L21.995,21.59 C22.249051,21.59 22.455,21.795949 22.455,22.05 L22.455,22.05 C22.455,22.304051 22.249051,22.51 21.995,22.51 L1.915,22.51 C1.66094902,22.51 1.455,22.304051 1.455,22.05 L1.455,22.05 C1.455,21.795949 1.66094902,21.59 1.915,21.59 Z" id="Rectangle-path"></path>
                        <path d="M23.19,23.08 L0.835,23.08 C0.571967903,23.0793548 0.353411511,23.2826123 0.335,23.545 C0.35835149,23.8034319 0.575517402,24.0010529 0.835,24 L23.19,24 C23.3175485,24.0096501 23.4434397,23.9663324 23.5380449,23.8802417 C23.6326501,23.7941509 23.6876137,23.6728908 23.69,23.545 C23.6888896,23.4158424 23.6346752,23.292834 23.5400933,23.2048728 C23.4455114,23.1169116 23.3188987,23.0717508 23.19,23.08 Z" id="Shape"></path>
                        <path d="M1.7422661,9.41845671 L21.4822661,9.41845671 C21.795422,9.41444112 22.0721399,9.21372584 22.1731954,8.91729625 C22.274251,8.62086665 22.1777585,8.29292059 21.9322661,8.09845671 L12.0672661,0.163456711 C11.8030802,-0.0544855702 11.421452,-0.0544855702 11.1572661,0.163456711 L1.2772661,8.10845671 C1.03176452,8.3038965 0.937416223,8.6336409 1.04238493,8.92935919 C1.14735364,9.22507748 1.42848556,9.42154073 1.7422661,9.41845671 Z" id="Shape"></path>
                    </g>
                </g>
            </g>
        </g>
    </g>
</svg>