<svg xmlns="http://www.w3.org/2000/svg" width="270" height="270" viewBox="0 0 270 270">
  <g id="Glass_bottle" data-name="Glass bottle" transform="translate(-98 -222)">
    <rect id="Rectangle_832" data-name="Rectangle 832" width="270" height="270" transform="translate(98 222)" fill="none"/>
    <g id="bottle-glyph1-41-512_6738" transform="translate(8.209 722.07)">
      <path id="Path_3838" data-name="Path 3838" d="M224.393-485.4c-2.11,1.635-1.9,6.066.422,6.963.475.158,7.49.316,15.561.316s15.086-.158,15.561-.316c2.374-.949,2.532-5.855.264-7.068C254.67-486.35,225.5-486.191,224.393-485.4Z" transform="translate(-15.66)"/>
      <path id="Path_3839" data-name="Path 3839" d="M212.372-461.048c-.158,1.108-.422,4.114-.58,6.752a179.87,179.87,0,0,1-4.22,24.739c-1.688,6.594-4.22,13.345-8.545,23-1.9,4.22-4.273,9.547-5.275,11.816-3.429,7.648-4.009,12.185-3.956,29.381.053,20.624.9,29.381,4.062,42.146.686,2.743,1.477,7.015,1.793,9.442a294.332,294.332,0,0,1,1.53,32.493c-.211,7.859-.211,7.965-2.532,13.715-4.536,11.6-4.906,12.87-4.853,17.407.053,6.963,3.007,14.347,6.646,16.563,1.741,1.108,2.321,1.108,28.326,1.108,25.319,0,26.638-.053,28.115-1,3.8-2.532,6.7-9.653,6.752-16.668.053-4.484-.264-5.539-4.906-17.407-2.268-5.8-2.268-5.855-2.479-13.925a293.626,293.626,0,0,1,1.53-32.757c.316-2.163,1.213-6.8,2.11-10.286,2.268-9.442,3.112-16.457,3.64-31.913.58-15.719.105-25.372-1.582-31.754a127.538,127.538,0,0,0-5.75-14.242c-9.073-19.728-12.712-32.44-14.347-49.952-.316-3.376-.686-7.121-.791-8.387L236.795-463H212.689Z" transform="translate(0 -10.901)"/>
    </g>
  </g>
</svg>
