<?xml version="1.0" encoding="UTF-8"?>
<svg width="20px" height="20px" viewBox="0 0 20 20" version="1.1" xmlns="http://www.w3.org/2000/svg" xmlns:xlink="http://www.w3.org/1999/xlink">
    <!-- Generator: Sketch 52.6 (67491) - http://www.bohemiancoding.com/sketch -->
    <title>info-outline</title>
    <desc>Created with Sketch.</desc>
    <g id="Page-1" stroke="none" stroke-width="1" fill="none" fill-rule="evenodd">
        <g id="Users_Employee_All" transform="translate(-1182.000000, -976.000000)" fill="#f78834">
            <g id="Group-5" transform="translate(262.000000, 238.000000)">
                <g id="Component/Modal/Passive/no-label" transform="translate(540.000000, 723.000000)">
                    <g id="info-outline" transform="translate(380.000000, 15.000000)">
                        <path d="M9,15 L11,15 L11,9 L9,9 L9,15 L9,15 Z M10,0 C4.5,0 0,4.5 0,10 C0,15.5 4.5,20 10,20 C15.5,20 20,15.5 20,10 C20,4.5 15.5,0 10,0 L10,0 Z M9,7 L11,7 L11,5 L9,5 L9,7 L9,7 Z" id="Shape"></path>
                    </g>
                </g>
            </g>
        </g>
    </g>
</svg>