<svg xmlns="http://www.w3.org/2000/svg" width="32" height="32" viewBox="0 0 32 32">
  <g id="Manage" transform="translate(-25 -207)">
    <rect id="Rectangle_2" data-name="Rectangle 2" width="32" height="32" transform="translate(25 207)" fill="none"/>
    <g id="exit-to-app" transform="translate(29 211)">
      <path id="Shape" d="M21.334,24H2.667A2.67,2.67,0,0,1,0,21.334V16H2.667v5.333H21.334V2.667H2.667V8H0V2.667A2.67,2.67,0,0,1,2.667,0H21.334A2.67,2.67,0,0,1,24,2.667V21.334A2.67,2.67,0,0,1,21.334,24Zm-10-5.333h0L9.467,16.8l3.466-3.467H0V10.667H12.933L9.467,7.2l1.867-1.867L18,12l-6.666,6.666Z" fill="#77838a"/>
    </g>
  </g>
</svg>
