<svg xmlns="http://www.w3.org/2000/svg" width="27" height="26" viewBox="0 0 27 26">
  <g id="Group_1212" data-name="Group 1212" transform="translate(0.496)">
    <ellipse id="Ellipse_26" data-name="Ellipse 26" cx="13.5" cy="13" rx="13.5" ry="13" transform="translate(-0.496)" fill="#078ae8"/>
    <g id="linked-in-logo-of-two-letters" transform="translate(8.816 7.731)">
      <g id="Group_12" data-name="Group 12" transform="translate(0 0)">
        <path id="Path_12" data-name="Path 12" d="M.35,185.67h1.4a.35.35,0,0,0,.35-.35V179.2a.35.35,0,0,0-.35-.35H.35a.35.35,0,0,0-.35.35v6.12A.35.35,0,0,0,.35,185.67Z" transform="translate(0 -175.831)" fill="#fff"/>
        <path id="Path_13" data-name="Path 13" d="M.35,25.859h1.4a.35.35,0,0,0,.35-.35V24.266a.35.35,0,0,0-.35-.35H.35a.35.35,0,0,0-.35.35v1.243A.35.35,0,0,0,.35,25.859Z" transform="translate(0 -23.916)" fill="#fff"/>
        <path id="Path_14" data-name="Path 14" d="M188.251,170.534a2.129,2.129,0,0,0-.871-.639,3.152,3.152,0,0,0-1.27-.25,3.111,3.111,0,0,0-2.391,1.077c-.13.143-.225.112-.225-.082v-.466a.35.35,0,0,0-.35-.35h-1.251a.35.35,0,0,0-.35.35v6.12a.35.35,0,0,0,.35.35h1.4a.35.35,0,0,0,.35-.35v-2.129a6.847,6.847,0,0,1,.161-1.823,1.506,1.506,0,0,1,.594-.792,1.684,1.684,0,0,1,.979-.3,1.249,1.249,0,0,1,.729.209,1.166,1.166,0,0,1,.437.587,6.258,6.258,0,0,1,.135,1.663v2.584a.35.35,0,0,0,.35.35h1.4a.35.35,0,0,0,.35-.35v-3.466a6.565,6.565,0,0,0-.116-1.412A2.313,2.313,0,0,0,188.251,170.534Z" transform="translate(-178.007 -166.805)" fill="#fff"/>
      </g>
    </g>
  </g>
</svg>
