<svg xmlns="http://www.w3.org/2000/svg" width="26" height="26" viewBox="0 0 26 26">
  <g id="Group_1214" data-name="Group 1214" transform="translate(0.248)">
    <circle id="Ellipse_25" data-name="Ellipse 25" cx="13" cy="13" r="13" transform="translate(-0.248)" fill="#078ae8"/>
    <path id="twitter" d="M11.293,49.086a4.827,4.827,0,0,1-1.334.366,2.3,2.3,0,0,0,1.019-1.28,4.627,4.627,0,0,1-1.468.56,2.315,2.315,0,0,0-4,1.583,2.384,2.384,0,0,0,.054.528A6.553,6.553,0,0,1,.786,48.422,2.316,2.316,0,0,0,1.5,51.516a2.286,2.286,0,0,1-1.046-.285v.025a2.326,2.326,0,0,0,1.855,2.275,2.311,2.311,0,0,1-.607.076,2.047,2.047,0,0,1-.438-.04,2.337,2.337,0,0,0,2.163,1.613,4.652,4.652,0,0,1-2.871.987A4.336,4.336,0,0,1,0,56.137a6.518,6.518,0,0,0,3.552,1.039,6.544,6.544,0,0,0,6.59-6.588c0-.1,0-.2-.008-.3A4.619,4.619,0,0,0,11.293,49.086Z" transform="translate(7.274 -39.41)" fill="#fff"/>
  </g>
</svg>
