<?xml version="1.0" encoding="UTF-8"?>
<svg width="24px" height="20px" viewBox="0 0 24 20" version="1.1" xmlns="http://www.w3.org/2000/svg" xmlns:xlink="http://www.w3.org/1999/xlink">
    <!-- Generator: Sketch 52.6 (67491) - http://www.bohemiancoding.com/sketch -->
    <title>message</title>
    <desc>Created with Sketch.</desc>
    <g id="Page-1" stroke="none" stroke-width="1" fill="none" fill-rule="evenodd">
        <g id="System-settings_Password-Policy" transform="translate(-29.000000, -468.000000)" fill="#f78834">
            <g id="main-nav" transform="translate(-1.000000, 10.000000)">
                <g id="message" transform="translate(30.000000, 458.000000)">
                    <path d="M21.6,0 L2.4,0 C1.08,0 0,1.08 0,2.4 L0,16.8 C0,18.12 1.08,19.2 2.4,19.2 L21.6,19.2 C22.92,19.2 24,18.12 24,16.8 L24,2.4 C24,1.08 22.92,0 21.6,0 L21.6,0 Z M21.6,4.8 L12,10.8 L2.4,4.8 L2.4,2.4 L12,8.4 L21.6,2.4 L21.6,4.8 L21.6,4.8 Z" id="Shape"></path>
                </g>
            </g>
        </g>
    </g>
</svg>