<svg xmlns="http://www.w3.org/2000/svg" width="270" height="270" viewBox="0 0 270 270">
  <g id="Plastic_bottle" data-name="Plastic bottle" transform="translate(-98 -222)">
    <rect id="Rectangle_832" data-name="Rectangle 832" width="270" height="270" transform="translate(98 222)" fill="none"/>
    <g id="bottle-3-xxl" transform="translate(106.199 487.999)">
      <path id="Path_3834" data-name="Path 3834" d="M111-245.7v9.3h34.353l-.294-9.1-.294-9-16.834-.294L111-255Z" transform="translate(-0.557 0)"/>
      <path id="Path_3835" data-name="Path 3835" d="M112.987-225.4c-.881,6.557-4.306,13.408-13.409,26.915-8.417,12.528-13.115,21.532-14.191,27.4l-.587,3.719h84.66l-.587-4.4c-.881-5.775-4.7-13.311-13.9-26.719-9.3-13.7-13.213-21.826-13.213-27.4V-230H113.672Z" transform="translate(0 -0.532)"/>
      <path id="Path_3836" data-name="Path 3836" d="M88-131.574v26.426h82.213V-158H88Z" transform="translate(-2.026 -2.064)"/>
      <path id="Path_3837" data-name="Path 3837" d="M87.3-92.851c.294,1.272,1.468,4.894,2.643,8.123,3.328,9.1,3.621,20.749.979,37.583C85.928-14.455,89.158-3,103.545-3c4.306,0,5.285-.391,8.221-3.426,1.86-1.86,3.719-3.426,4.306-3.426.489,0,2.251,1.566,3.915,3.426C122.63-3.494,123.609-3,127.524-3s4.8-.391,7.145-3.426c1.468-1.86,3.23-3.426,3.817-3.426.489,0,2.447,1.566,4.306,3.426C145.728-3.4,146.707-3,151.111-3c6.264,0,11.255-3.23,14.094-9.1,2.838-5.774,2.74-16.638-.294-31.613-1.272-6.46-2.643-13.7-2.936-16.149-.881-5.97.979-20.357,3.328-26.621,4.035-10.8,7.34-8.515-38.268-8.515,0,0-36.621-.252-38.453,0S87.3-92.851,87.3-92.851Z" transform="translate(-0.052 -3.4)"/>
    </g>
  </g>
</svg>
