<?xml version="1.0" encoding="UTF-8"?>
<svg width="20px" height="16px" viewBox="0 0 20 16" version="1.1" xmlns="http://www.w3.org/2000/svg" xmlns:xlink="http://www.w3.org/1999/xlink">
    <!-- Generator: Sketch 52.6 (67491) - http://www.bohemiancoding.com/sketch -->
    <title>noun_print_3390087</title>
    <desc>Created with Sketch.</desc>
    <g id="Page-1" stroke="none" stroke-width="1" fill="none" fill-rule="evenodd">
        <g id="Users_Employee_All" transform="translate(-1222.000000, -978.000000)" fill="#f78834" fill-rule="nonzero">
            <g id="Group-5" transform="translate(262.000000, 238.000000)">
                <g id="Component/Modal/Passive/no-label" transform="translate(540.000000, 723.000000)">
                    <g id="noun_print_3390087" transform="translate(420.000000, 17.000000)">
                        <path d="M14,2 L6,2 L6,0 L14,0 L14,2 Z M6,16 L14,16 L14,10 L6,10 L6,16 Z M20,3 L20,12 L15,12 L15,9 L5,9 L5,12 L0,12 L0,3 L20,3 Z M19,5 C19,4.44771525 18.5522847,4 18,4 C17.4477153,4 17,4.44771525 17,5 C17,5.55228475 17.4477153,6 18,6 C18.5522847,6 19,5.55228475 19,5 Z" id="Shape"></path>
                    </g>
                </g>
            </g>
        </g>
    </g>
</svg>