<svg xmlns="http://www.w3.org/2000/svg" width="23.526" height="23.88" viewBox="0 0 23.526 23.88">
  <g id="Page-1" transform="translate(-0.313)">
    <g id="Dashboard_Overview" transform="translate(-29 -804)">
      <g id="settings" transform="translate(29 804)">
        <path id="Shape" d="M20.88,13.2c0-.36.12-.72.12-1.2a3.7,3.7,0,0,0-.12-1.2L23.4,8.76a.565.565,0,0,0,.12-.72l-2.4-4.2a.672.672,0,0,0-.72-.12l-3,1.2a11.4,11.4,0,0,0-2.04-1.2L14.88.6A.483.483,0,0,0,14.4,0H9.6C9.36,0,9,.24,9,.48L8.52,3.72a9.052,9.052,0,0,0-2.04,1.2L3.6,3.72a.742.742,0,0,0-.84.24L.36,8.16c-.12.12,0,.48.24.72L3.12,10.8c0,.36-.12.72-.12,1.2a3.7,3.7,0,0,0,.12,1.2L.6,15.24a.565.565,0,0,0-.12.72l2.4,4.2a.672.672,0,0,0,.72.12l3-1.2a11.4,11.4,0,0,0,2.04,1.2l.48,3.12a.549.549,0,0,0,.6.48h4.8c.24,0,.6-.24.6-.48l.48-3.12a11.4,11.4,0,0,0,2.04-1.2l3,1.2a.577.577,0,0,0,.72-.24l2.4-4.2c.12-.24.12-.6-.12-.72L20.88,13.2ZM12,16.2A4.2,4.2,0,1,1,16.2,12,4.252,4.252,0,0,1,12,16.2Z" fill="#77838a" fill-rule="evenodd"/>
      </g>
    </g>
  </g>
</svg>
