<?xml version="1.0" encoding="UTF-8"?>
<svg width="24px" height="24px" viewBox="0 0 24 24" version="1.1" xmlns="http://www.w3.org/2000/svg" xmlns:xlink="http://www.w3.org/1999/xlink">
    <!-- Generator: Sketch 52.6 (67491) - http://www.bohemiancoding.com/sketch -->
    <title>settings</title>
    <desc>Created with Sketch.</desc>
    <g id="Page-1" stroke="none" stroke-width="1" fill="none" fill-rule="evenodd">
        <g id="Dashboard_Overview" transform="translate(-29.000000, -804.000000)" fill="#f78834">
            <g id="settings" transform="translate(29.000000, 804.000000)">
                <path d="M20.88,13.2 C20.88,12.84 21,12.48 21,12 C21,11.52 21,11.16 20.88,10.8 L23.4,8.76 C23.64,8.52 23.64,8.28 23.52,8.04 L21.12,3.84 C21,3.72 20.76,3.6 20.4,3.72 L17.4,4.92 C16.8,4.44 16.08,4.08 15.36,3.72 L14.88,0.6 C15,0.24 14.64,0 14.4,0 L9.6,0 C9.36,0 9,0.24 9,0.48 L8.52,3.72 C7.8,3.96 7.2,4.44 6.48,4.92 L3.6,3.72 C3.24,3.6 3,3.72 2.76,3.96 L0.36,8.16 C0.24,8.28 0.36,8.64 0.6,8.88 L3.12,10.8 C3.12,11.16 3,11.52 3,12 C3,12.48 3,12.84 3.12,13.2 L0.6,15.24 C0.36,15.48 0.36,15.72 0.48,15.96 L2.88,20.16 C3,20.28 3.24,20.4 3.6,20.28 L6.6,19.08 C7.2,19.56 7.92,19.92 8.64,20.28 L9.12,23.4 C9.12,23.64 9.36,23.88 9.72,23.88 L14.52,23.88 C14.76,23.88 15.12,23.64 15.12,23.4 L15.6,20.28 C16.32,19.92 17.04,19.56 17.64,19.08 L20.64,20.28 C20.88,20.4 21.24,20.28 21.36,20.04 L23.76,15.84 C23.88,15.6 23.88,15.24 23.64,15.12 L20.88,13.2 L20.88,13.2 Z M12,16.2 C9.72,16.2 7.8,14.28 7.8,12 C7.8,9.72 9.72,7.8 12,7.8 C14.28,7.8 16.2,9.72 16.2,12 C16.2,14.28 14.28,16.2 12,16.2 L12,16.2 Z" id="Shape"></path>
            </g>
        </g>
    </g>
</svg>