<?xml version="1.0" encoding="UTF-8"?>
<svg width="20px" height="14px" viewBox="0 0 20 14" version="1.1" xmlns="http://www.w3.org/2000/svg" xmlns:xlink="http://www.w3.org/1999/xlink">
    <!-- Generator: Sketch 52.6 (67491) - http://www.bohemiancoding.com/sketch -->
    <title>storage</title>
    <desc>Created with Sketch.</desc>
    <g id="Page-1" stroke="none" stroke-width="1" fill="none" fill-rule="evenodd">
        <g id="Users_Employee_All" transform="translate(-1262.000000, -979.000000)" fill="#f78834">
            <g id="Group-5" transform="translate(262.000000, 238.000000)">
                <g id="Component/Modal/Passive/no-label" transform="translate(540.000000, 723.000000)">
                    <g id="storage" transform="translate(460.000000, 18.000000)">
                        <path d="M0,14 L20,14 L20,10 L0,10 L0,14 L0,14 Z M2,11 L4,11 L4,13 L2,13 L2,11 L2,11 Z M0,0 L0,4 L20,4 L20,0 L0,0 L0,0 Z M4,3 L2,3 L2,1 L4,1 L4,3 L4,3 Z M0,9 L20,9 L20,5 L0,5 L0,9 L0,9 Z M2,6 L4,6 L4,8 L2,8 L2,6 L2,6 Z" id="Shape"></path>
                    </g>
                </g>
            </g>
        </g>
    </g>
</svg>