<?xml version="1.0" encoding="UTF-8"?>
<svg width="16px" height="16px" viewBox="0 0 16 16" version="1.1" xmlns="http://www.w3.org/2000/svg" xmlns:xlink="http://www.w3.org/1999/xlink">
    <title>person</title>
    <defs>
        <rect id="path-1" x="0" y="0" width="660.161111" height="552"></rect>
        <filter x="-0.5%" y="-0.5%" width="101.1%" height="101.3%" filterUnits="objectBoundingBox" id="filter-2">
            <feOffset dx="0" dy="1" in="SourceAlpha" result="shadowOffsetOuter1"></feOffset>
            <feGaussianBlur stdDeviation="1" in="shadowOffsetOuter1" result="shadowBlurOuter1"></feGaussianBlur>
            <feColorMatrix values="0 0 0 0 0   0 0 0 0 0   0 0 0 0 0  0 0 0 0.1 0" type="matrix" in="shadowBlurOuter1"></feColorMatrix>
        </filter>
    </defs>
    <g id="Page-1" stroke="none" stroke-width="1" fill="none" fill-rule="evenodd">
        <g id="@1440px---Normal-/-12-Columns-/-20px-Gutters-/-5%-Margins" transform="translate(-846.000000, -427.000000)">
            <rect fill="#F5F7FA" x="0" y="0" width="1440" height="1024"></rect>
            <g id="Rectangle-157-Copy-12" transform="translate(389.000000, 236.000000)">
                <use fill="black" fill-opacity="1" filter="url(#filter-2)" xlink:href="#path-1"></use>
                <use fill="#FFFFFF" fill-rule="evenodd" xlink:href="#path-1"></use>
            </g>
            <g id="Text-Field_Enabled" transform="translate(565.000000, 390.000000)">
                <polygon id="Rectangle-157-Copy-3" fill-opacity="0.1" fill="#f78834" points="0 25 310 25 310 65 0 65"></polygon>
                <text id="Enter-phone-number-o" font-size="14" font-weight="normal" line-spacing="18" fill="#5A6872">
                    <tspan x="16" y="50">Enter phone number or Email ID</tspan>
                </text>
            </g>
            <g id="person" transform="translate(846.000000, 427.000000)" fill="#5A6872" fill-rule="nonzero">
                <path d="M8,8 C10.2,8 12,6.2 12,4 C12,1.8 10.2,0 8,0 C5.8,0 4,1.8 4,4 C4,6.2 5.8,8 8,8 Z M8,10 C5.3,10 0,11.3 0,14 L0,16 L16,16 L16,14 C16,11.3 10.7,10 8,10 Z" id="Shape"></path>
            </g>
        </g>
    </g>
</svg>