<?xml version="1.0" encoding="UTF-8"?>
<svg width="24px" height="20px" viewBox="0 0 24 20" version="1.1" xmlns="http://www.w3.org/2000/svg" xmlns:xlink="http://www.w3.org/1999/xlink">
    <!-- Generator: Sketch 52.6 (67491) - http://www.bohemiancoding.com/sketch -->
    <title>User</title>
    <desc>Created with Sketch.</desc>
    <g id="Page-1" stroke="none" stroke-width="1" fill="none" fill-rule="evenodd">
        <g id="System-settings_Password-Policy" transform="translate(-29.000000, -317.000000)" fill="#f78834">
            <g id="folder-shared" transform="translate(29.000000, 317.000000)">
                <path d="M21.6,2.4 L12,2.4 L9.6,0 L2.4,0 C1.08,0 0,1.08 0,2.4 L0,16.8 C0,18.12 1.08,19.2 2.4,19.2 L21.6,19.2 C22.92,19.2 24,18.12 24,16.8 L24,4.8 C24,3.48 22.92,2.4 21.6,2.4 L21.6,2.4 Z M15.6,6 C16.92,6 18,7.08 18,8.4 C18,9.72 16.92,10.8 15.6,10.8 C14.28,10.8 13.2,9.72 13.2,8.4 C13.2,7.08 14.28,6 15.6,6 L15.6,6 Z M20.4,15.6 L10.8,15.6 L10.8,14.4 C10.8,12.84 14.04,12 15.6,12 C17.16,12 20.4,12.84 20.4,14.4 L20.4,15.6 L20.4,15.6 Z" id="User"></path>
            </g>
        </g>
    </g>
</svg>