<svg xmlns="http://www.w3.org/2000/svg" width="43.749" height="45.69" viewBox="0 0 43.749 45.69">
  <g id="noun-price-873798" transform="translate(-81.891 0.035)">
    <path id="Union_17" data-name="Union 17" d="M20.134,45.118h0l-4.254-3.112a.713.713,0,0,0-.419-.135H10.191a2.952,2.952,0,0,1-2.813-2.045h0L5.752,34.841a.71.71,0,0,0-.259-.359l-4.259-3.1A2.952,2.952,0,0,1,.157,28.034h0l1.626-4.986a.719.719,0,0,0,0-.444L.157,17.616A2.953,2.953,0,0,1,1.234,14.31L5.5,11.233a.705.705,0,0,0,.259-.359L7.378,5.852a2.953,2.953,0,0,1,2.813-2.045h5.286a.712.712,0,0,0,.419-.135l4.239-3.1a2.952,2.952,0,0,1,3.491,0l4.254,3.136a.714.714,0,0,0,.419.135h5.261a2.95,2.95,0,0,1,2.813,2.045L38,10.909a.713.713,0,0,0,.259.359l4.259,3.1A2.953,2.953,0,0,1,43.6,17.656l-1.626,4.987a.714.714,0,0,0,0,.444L43.6,28.073h0A2.948,2.948,0,0,1,42.52,31.4l-4.259,3.1a.711.711,0,0,0-.259.359l-1.625,4.987a2.953,2.953,0,0,1-2.813,2.045H28.283a.711.711,0,0,0-.419.134l-4.239,3.1a2.95,2.95,0,0,1-3.491,0ZM17.2,40.192l4.258,3.1a.715.715,0,0,0,.838,0l4.263-3.107a2.943,2.943,0,0,1,1.741-.564h5.261a.713.713,0,0,0,.679-.5h0l1.626-4.986a2.938,2.938,0,0,1,1.077-1.5l4.259-3.1a.712.712,0,0,0,.259-.8h0l-1.626-4.987a2.935,2.935,0,0,1,0-1.835l1.63-4.987a.714.714,0,0,0-.259-.8l-4.259-3.1a2.933,2.933,0,0,1-1.077-1.5L34.242,6.555a.713.713,0,0,0-.678-.5H28.3a2.943,2.943,0,0,1-1.741-.563L22.3,2.4a.714.714,0,0,0-.843,0L17.2,5.508a2.942,2.942,0,0,1-1.741.564H10.2a.712.712,0,0,0-.678.5L7.891,11.557a2.941,2.941,0,0,1-1.077,1.5l-4.259,3.1a.714.714,0,0,0-.259.8l1.626,4.987a2.946,2.946,0,0,1,0,1.83L2.3,28.751a.714.714,0,0,0,.259.8l4.259,3.1a2.942,2.942,0,0,1,1.072,1.5L9.513,39.13a.713.713,0,0,0,.678.5h5.275A2.94,2.94,0,0,1,17.2,40.192ZM21,35.9a1.417,1.417,0,0,1-.385-1.059V32.761H16.957a1.421,1.421,0,0,1,0-2.838h5.849a2.879,2.879,0,0,0,2.863-3.162,2.962,2.962,0,0,0-2.992-2.588H20.682A5.72,5.72,0,0,1,15,17.906a5.814,5.814,0,0,1,5.62-5.152V10.57a1.421,1.421,0,0,1,2.838,0v2.189h3.087a1.421,1.421,0,1,1,0,2.838H20.682a2.878,2.878,0,0,0-2.862,3.162,2.962,2.962,0,0,0,2.992,2.588h1.835A5.824,5.824,0,0,1,28.5,26.5a5.719,5.719,0,0,1-5.052,6.229v2.12A1.421,1.421,0,0,1,21,35.9Z" transform="translate(81.891 -0.035)" fill="#fba500"/>
  </g>
</svg>
