<svg xmlns="http://www.w3.org/2000/svg" width="23.079" height="47.432" viewBox="0 0 23.079 47.432">
  <path id="Path_5694" data-name="Path 5694" d="M289.887,130.653l-4.761-3.044v-14.83a.738.738,0,0,0-.781-.781H276.93a.738.738,0,0,0-.781.781v14.83l-4.761,3.044a4.357,4.357,0,0,0-2.029,3.668v20.138a4.364,4.364,0,0,0,4.371,4.371h13.737a4.364,4.364,0,0,0,4.371-4.371V134.322a4.286,4.286,0,0,0-1.951-3.668ZM277.632,113.56h5.854V115.9h-5.854Zm12.645,40.9a2.8,2.8,0,0,1-2.81,2.81H273.73a2.8,2.8,0,0,1-2.81-2.81V134.322a2.752,2.752,0,0,1,1.249-2.342l5.152-3.278a.8.8,0,0,0,.39-.625V117.462h5.854V128a.7.7,0,0,0,.39.625l5.152,3.278a2.854,2.854,0,0,1,1.249,2.342V154.46Z" transform="translate(-269.059 -111.698)" fill="#a8bf3d" stroke="#a8bf3d" stroke-width="0.6"/>
</svg>
