<svg xmlns="http://www.w3.org/2000/svg" width="45.686" height="28.934" viewBox="0 0 45.686 28.934">
  <g id="noun-voucher-1499218" transform="translate(-87.5 -113.75)">
    <path id="Path_5695" data-name="Path 5695" d="M129.378,113.75H91.307a3.77,3.77,0,0,0-3.807,3.807v21.32a3.77,3.77,0,0,0,3.807,3.807h38.071a3.77,3.77,0,0,0,3.807-3.807v-21.32A3.77,3.77,0,0,0,129.378,113.75Zm2.284,3.807v20.558H93.591V115.273h35.787A2.244,2.244,0,0,1,131.663,117.557Zm-40.356-2.284h.761v22.843H89.023V117.557A2.244,2.244,0,0,1,91.307,115.273Zm0,25.888a2.218,2.218,0,0,1-2.132-1.523h2.893v1.523Zm38.071,0H93.591v-1.523H131.51A2.218,2.218,0,0,1,129.378,141.161Z" fill="#1363df"/>
    <path id="Path_5696" data-name="Path 5696" d="M423.807,165.5a2.243,2.243,0,0,1-2.284-2.284H420a3.77,3.77,0,0,0,3.807,3.807h.761v1.523h1.523v-1.523h.761a3.77,3.77,0,0,0,3.807-3.807v-1.523a3.77,3.77,0,0,0-3.807-3.807h-.761V151.8h.761a2.244,2.244,0,0,1,2.284,2.284h1.523a3.77,3.77,0,0,0-3.807-3.807h-.761V148.75h-1.523v1.523h-.761A3.77,3.77,0,0,0,420,154.08V155.6a3.77,3.77,0,0,0,3.807,3.807h.761V165.5Zm0-7.614a2.244,2.244,0,0,1-2.284-2.284V154.08a2.243,2.243,0,0,1,2.284-2.284h.761v6.091Zm2.284,1.523h.761a2.244,2.244,0,0,1,2.284,2.284v1.523a2.244,2.244,0,0,1-2.284,2.284h-.761Z" transform="translate(-303.566 -31.954)" fill="#1363df"/>
    <path id="Path_5697" data-name="Path 5697" d="M192.5,201.25h16.751v1.523H192.5Z" transform="translate(-95.863 -79.886)" fill="#1363df"/>
    <path id="Path_5698" data-name="Path 5698" d="M192.5,253.75h16.751v1.523H192.5Z" transform="translate(-95.863 -127.817)" fill="#1363df"/>
    <path id="Path_5699" data-name="Path 5699" d="M192.5,306.25h16.751v1.523H192.5Z" transform="translate(-95.863 -175.749)" fill="#1363df"/>
  </g>
</svg>
