<?xml version="1.0" encoding="utf-8"?>
<!-- Generator: Adobe Illustrator 27.0.0, SVG Export Plug-In . SVG Version: 6.00 Build 0)  -->
<svg version="1.1" id="Layer_1" xmlns:xodm="http://www.corel.com/coreldraw/odm/2003"
	 xmlns="http://www.w3.org/2000/svg" xmlns:xlink="http://www.w3.org/1999/xlink" x="0px" y="0px" viewBox="0 0 122.9 122.9"
	 style="enable-background:new 0 0 122.9 122.9;" xml:space="preserve">
<style type="text/css">
	.st0{fill-rule:evenodd;clip-rule:evenodd;fill:#1363DF;}
</style>
<g id="Layer_x0020_1">
	<path class="st0" d="M112.9,93.8H9.9c-0.8,0-1.4-0.6-1.4-1.4c0-3.9-3.2-7.1-7.1-7.1c-0.8,0-1.4-0.6-1.4-1.4V39
		c0-0.8,0.6-1.4,1.4-1.4c3.9,0,7.1-3.2,7.1-7.1c0-0.8,0.6-1.4,1.4-1.4h103c0.8,0,1.4,0.6,1.4,1.4c0,3.9,3.2,7.1,7.1,7.1
		c0.8,0,1.4,0.6,1.4,1.4v44.8c0,0.8-0.6,1.4-1.4,1.4c-3.9,0-7.1,3.2-7.1,7.1C114.4,93.2,113.7,93.8,112.9,93.8L112.9,93.8z
		 M11.3,90.9h100.3c0.6-4.3,4.1-7.8,8.4-8.4l0-42.2c-4.3-0.6-7.8-4.1-8.4-8.4H11.3c-0.6,4.3-4.1,7.8-8.4,8.4v42.2
		C7.2,83.2,10.7,86.6,11.3,90.9L11.3,90.9z"/>
	<path class="st0" d="M53.8,44.9c-0.8,0-1.4-0.6-1.4-1.4v-6.4c0-1.9,2.9-1.9,2.9,0v6.4C55.3,44.3,54.6,44.9,53.8,44.9z"/>
	<path class="st0" d="M53.8,59c-0.8,0-1.4-0.6-1.4-1.4v-6.4c0-1.9,2.9-1.9,2.9,0v6.4C55.3,58.4,54.6,59,53.8,59z"/>
	<path class="st0" d="M53.8,73.1c-0.8,0-1.4-0.6-1.4-1.4v-6.4c0-1.9,2.9-1.9,2.9,0v6.4C55.3,72.5,54.6,73.1,53.8,73.1z"/>
	<path class="st0" d="M53.8,87.3c-0.8,0-1.4-0.6-1.4-1.4v-6.4c0-1.9,2.9-1.9,2.9,0v6.4C55.3,86.6,54.6,87.3,53.8,87.3z"/>
	<path class="st0" d="M101.7,76.8c-0.4,0-0.7-0.1-1-0.4L72.9,48.6c-1.3-1.3,0.7-3.4,2-2l27.8,27.8C103.6,75.2,103,76.8,101.7,76.8
		L101.7,76.8z"/>
	<path class="st0" d="M96.6,59.6c-6.2,0-9.4-7.6-5-12c2.7-2.7,7.2-2.7,9.9,0C106,52.1,102.8,59.6,96.6,59.6z M96.6,48.5
		c-5.4,0-5.4,8.3,0,8.3C102.1,56.7,102.1,48.5,96.6,48.5z"/>
	<path class="st0" d="M79,77.3c-6.2,0-9.4-7.6-5-12c2.7-2.7,7.2-2.7,9.9,0C88.4,69.7,85.2,77.3,79,77.3z M79,66.1
		c-5.4,0-5.4,8.3,0,8.3C84.4,74.4,84.4,66.1,79,66.1z"/>
	<path class="st0" d="M41.8,63.7h-23c-1.9,0-1.9-2.9,0-2.9h23C43.7,60.8,43.7,63.7,41.8,63.7z"/>
	<path class="st0" d="M41.8,71.4H12.3c-1.9,0-1.9-2.9,0-2.9h29.6C43.7,68.5,43.7,71.4,41.8,71.4z"/>
	<path class="st0" d="M34.5,79.2H12.3c-1.9,0-1.9-2.9,0-2.9h22.3C36.4,76.3,36.4,79.2,34.5,79.2z"/>
	<path class="st0" d="M33.6,56H10.8c-0.8,0-1.4-0.6-1.4-1.4v-9.4c0-0.8,0.6-1.4,1.4-1.4h22.7c0.8,0,1.4,0.6,1.4,1.4v9.4
		C35,55.3,34.4,56,33.6,56z M12.3,53.1h19.9v-6.5H12.3C12.3,46.6,12.3,53.1,12.3,53.1z"/>
</g>
</svg>
