<?xml version="1.0" encoding="utf-8"?>
<!-- Generator: Adobe Illustrator 27.0.0, SVG Export Plug-In . SVG Version: 6.00 Build 0)  -->
<svg version="1.1" id="Layer_1" xmlns="http://www.w3.org/2000/svg" xmlns:xlink="http://www.w3.org/1999/xlink" x="0px" y="0px"
	 viewBox="0 0 512 512" style="enable-background:new 0 0 512 512;" xml:space="preserve">
<style type="text/css">
	.st0{fill-rule:evenodd;clip-rule:evenodd;fill:#1363DF;}
</style>
<g id="Layer_x0020_1">
	<g id="_298611488">
		<g>
			<g id="_298609424">
				<path class="st0" d="M505,443H7c-4,0-7-3-7-7v-24c0-4,3-7,7-7c12,0,21-10,21-21c0-12-9-21-21-21c-4,0-7-3-7-7v-30c0-4,3-7,7-7
					c12,0,21-10,21-21c0-12-9-21-21-21c-4,0-7-3-7-7v-31c0-4,3-7,7-7c12,0,21-9,21-21c0-11-9-21-21-21c-4,0-7-3-7-7v-24c0-4,3-7,7-7
					h498c4,0,7,3,7,7v277C512,440,509,443,505,443z M200,429h298V166H200V429z M14,429h172V166H14v11c16,3,28,17,28,34s-12,31-28,35
					v17c16,4,28,18,28,35s-12,31-28,34v18c16,3,28,17,28,34s-12,31-28,34V429z"/>
			</g>
			<g>
				<g id="_298611080">
					<path class="st0" d="M90,348c-1,0-2,0-3-1c-4-2-5-6-3-10l50-86c2-3,6-5,10-3c3,2,4,6,2,10l-50,86C95,347,92,348,90,348z"/>
				</g>
				<g>
					<g id="_298609112">
						<path class="st0" d="M80,303c-4,0-8-1-12-3c-12-7-17-23-10-35c5-8,13-13,22-13c5,0,9,1,13,4c6,3,10,9,12,15c2,7,1,13-3,19
							C98,298,89,303,80,303z M80,266c-4,0-7,2-9,6c-4,5-2,12,4,15c1,1,3,2,5,2c4,0,8-2,10-6c2-2,2-5,1-8c0-3-2-6-5-7
							C84,267,82,266,80,266z"/>
					</g>
					<g id="_298611224">
						<path class="st0" d="M150,343c-5,0-9-1-13-3c-6-4-10-9-12-16c-1-6-1-13,3-19c4-8,13-13,22-13c4,0,9,1,12,4c6,3,10,9,12,15
							c2,7,1,13-2,19C167,338,159,343,150,343z M150,306c-4,0-8,2-10,6c-2,3-2,6-1,9s2,5,5,7c2,0,4,1,6,1c4,0,8-2,10-6c1-2,1-5,1-8
							c-1-3-3-6-6-7C154,307,152,306,150,306z"/>
					</g>
				</g>
			</g>
			<g id="_298611152">
				<path class="st0" d="M455,206H243c-4,0-7-3-7-7s3-7,7-7h212c4,0,7,3,7,7S459,206,455,206z"/>
			</g>
			<g id="_298611272">
				<path class="st0" d="M415,246H243c-4,0-7-4-7-7c0-4,3-7,7-7h172c4,0,7,3,7,7C422,242,419,246,415,246z"/>
			</g>
			<g id="_298611320">
				<path class="st0" d="M455,285H243c-4,0-7-3-7-7s3-7,7-7h212c4,0,7,3,7,7S459,285,455,285z"/>
			</g>
			<g id="_298611584">
				<path class="st0" d="M413,324H243c-4,0-7-3-7-7s3-7,7-7h170c4,0,7,3,7,7S417,324,413,324z"/>
			</g>
			<g id="_298611656">
				<path class="st0" d="M413,364H243c-4,0-7-3-7-7s3-7,7-7h170c4,0,7,3,7,7S417,364,413,364z"/>
			</g>
			<g id="_298611728">
				<path class="st0" d="M455,403H243c-4,0-7-3-7-7s3-7,7-7h212c4,0,7,3,7,7S459,403,455,403z"/>
			</g>
			<g>
				<g id="_298611008">
					<path class="st0" d="M193,166c-1,0-3,0-4-1c-2-1-6-3-10-6c-24-13-44-25-49-34s-6-19-4-28c3-10,9-18,18-23c5-3,12-5,18-5
						c14,0,26,7,33,19c3,5,5,18,5,43v2c0,3,0,7,0,11c0,5,0,10,0,14c0,1,0,1,0,1C200,163,197,166,193,166L193,166z M162,83
						c-4,0-8,1-11,3c-6,3-10,8-11,14c-2,6-1,13,2,18c3,6,31,22,44,29c0-1,0-2,0-4c0-3,0-7,0-10v-2c0-28-2-35-3-36
						C179,87,171,83,162,83z"/>
				</g>
				<g id="_298611896">
					<path class="st0" d="M193,166c-2,0-5-1-6-3c-2-4-1-8,2-10c3-1,6-3,11-6c12-7,40-23,44-29c3-5,4-12,2-18c-1-6-5-11-11-14
						c-5-3-12-4-18-2c-6,1-11,5-14,11c-1,2-3,10-3,42c0,4-3,7-7,7l0,0c-4,0-7-3-7-7c0-29,1-43,5-49c5-9,13-15,23-18c9-2,20-1,28,4
						c9,5,15,13,18,23c2,9,1,19-4,28s-25,21-49,34c-5,3-8,5-10,6S194,166,193,166z"/>
				</g>
			</g>
		</g>
	</g>
</g>
</svg>
